<svg width="9" height="17" viewBox="0 0 9 17" fill="none" xmlns="http://www.w3.org/2000/svg">
<path d="M2.31429 9.78976L3.92 8.45338C3.54286 8.20475 2.78756 7.82235 2.25714 7.17916C2.12416 7.01791 2.08605 6.96211 1.93913 6.74697L1.93714 6.74406C1.77746 6.51024 1.48 6.11627 1.31429 5.84278C1.14857 5.56929 0.908571 5.12175 0.782857 4.84826C0.657143 4.57477 0.48 4.09616 0.382857 3.79159C0.285714 3.48702 0.171429 2.97733 0.12 2.67276C0.0685718 2.34954 0.0228571 1.66581 0 0H2.28571L2.29714 0.466179C2.30857 0.721024 2.33714 1.25558 2.37143 1.64717C2.4 2.03876 2.48 2.55466 2.54857 2.79708C2.61714 3.03949 2.77143 3.45594 2.89714 3.72943C3.02286 4.00292 3.24571 4.40695 3.38857 4.63071C3.53714 4.85448 3.82286 5.21499 4.02857 5.43876C4.23429 5.66252 4.63429 6.0106 4.91429 6.21572C5.2 6.42084 5.60571 6.66947 5.82857 6.76892C6.05143 6.86216 6.42286 6.9989 6.65714 7.06728C6.94857 7.14808 7.38857 7.20402 9 7.2724L8.97143 9.75868L7.91429 9.79598C6.97143 9.82706 6.80571 9.85192 6.37143 10.0073C6.10286 10.1005 5.73143 10.2622 5.54286 10.3616C5.35429 10.4673 5.01143 10.6973 4.77714 10.8713C4.54857 11.0453 4.16 11.4121 3.92 11.6856C3.68 11.959 3.38286 12.3506 3.25714 12.5558C3.13714 12.7609 2.93714 13.1525 2.82286 13.426C2.70286 13.6995 2.55429 14.1594 2.49143 14.4516C2.41143 14.7996 2.35429 15.328 2.28571 17L0 16.9689L0.017143 15.8812C0.0285716 15.1042 0.0628571 14.6256 0.142857 14.2029C0.205714 13.8797 0.308572 13.4322 0.377143 13.2084C0.44 12.9846 0.611429 12.5371 0.748572 12.2139C0.891429 11.8907 1.14286 11.3996 1.31429 11.1261C1.48 10.8527 1.77143 10.4424 2.31429 9.78976Z" fill="#4E7C23"/>
</svg>
