<svg width="40" height="23" viewBox="0 0 40 23" fill="none" xmlns="http://www.w3.org/2000/svg">
<path d="M0.177797 0.638667C0.241602 0.510934 0.433017 0.31135 0.600506 0.207567L0.895606 0.00798334L39.0591 0L39.3542 0.183617C39.5536 0.303367 39.7211 0.510934 39.8487 0.766401C39.9923 1.06178 40.0242 1.22145 39.9763 1.437C39.9524 1.58868 39.8567 1.83617 39.7689 1.97987C39.6892 2.11558 39.4739 2.30718 39.2984 2.395C38.9794 2.55467 38.8198 2.55467 0.975362 2.55467L0.664311 2.37105C0.46492 2.25928 0.28148 2.0597 0.161845 1.83617C0.0182834 1.56473 -0.0215949 1.40507 0.0103077 1.18153C0.0342347 1.01388 0.113991 0.774384 0.177797 0.638667Z" fill="#3F5E23"/>
<path d="M0.241602 10.8094C0.33731 10.6657 0.544677 10.4741 0.696214 10.3863C0.975362 10.2346 1.1269 10.2267 39.0192 10.2267L39.3383 10.4023C39.5297 10.5141 39.7211 10.7136 39.8407 10.9452C39.9923 11.2246 40.0242 11.3683 39.9843 11.6237C39.9524 11.7994 39.8647 12.0548 39.7769 12.1985C39.6892 12.3422 39.4739 12.5338 39.3064 12.6217C38.9873 12.7733 38.8278 12.7813 0.975362 12.7733L0.664311 12.5977C0.46492 12.4859 0.28148 12.2864 0.161845 12.0628C0.0103077 11.7834 -0.0215949 11.6317 0.0182834 11.3842C0.0422104 11.2086 0.145894 10.9452 0.241602 10.8094Z" fill="#3F5E23"/>
<path d="M0.241602 21.0281C0.33731 20.8844 0.544677 20.6928 0.696214 20.605C0.975362 20.4533 1.1269 20.4453 39.0192 20.4453L39.3383 20.621C39.5297 20.7327 39.7211 20.9323 39.8407 21.1638C39.9923 21.4432 40.0242 21.5869 39.9843 21.8424C39.9524 22.018 39.8647 22.2655 39.7849 22.4012C39.7051 22.529 39.5137 22.7206 39.0591 23H0.935484L0.640384 22.8084C0.46492 22.7046 0.265529 22.4811 0.15387 22.2735C0.0182834 22.0021 -0.0136192 21.8424 0.0182834 21.6029C0.0422104 21.4273 0.145894 21.1638 0.241602 21.0281Z" fill="#3F5E23"/>
</svg>
